# xmcd CD database file
#
# Track frame offsets:
#	150
#	15868
#	50384
#	74309
#	91055
#	120163
#	159876
#	202072
#	226904
#	249880
#	273068
#	299610
#
# Disc length: 4418 seconds
#
# Revision: 2
# Processed by: cddbd v1.4b41PL1 Copyright (c) Steve Scherf et al.
# Submitted via: Feurio! 1.50.2ß - http://www.feurio.com
#
DISCID=8d11400c
DTITLE=Various Artist - Various Rock 1
DYEAR=1900
DGENRE=
TTITLE0=AC/DC - You Shook Me All Night Long
TTITLE1=GUNS N' ROSES - CIVIL WAR
TTITLE2=BON JOVI - In These Arms
TTITLE3=AEROSMITH - Come Together
TTITLE4=METALLICA - Nothing Else Matters
TTITLE5=GUNS N' ROSES - November Rain
TTITLE6=GUNS N' ROSES - ESTRANGED
TTITLE7=METALLICA - Enter Sandman
TTITLE8=AC/DC - Thunderstruck
TTITLE9=AEROSMITH - Cryin'
TTITLE10=GUNS N' ROSES - Patience
TTITLE11=GUNS N' ROSES - BREAKDOWN
EXTD=
EXTT0=
EXTT1=
EXTT2=
EXTT3=
EXTT4=
EXTT5=
EXTT6=
EXTT7=
EXTT8=
EXTT9=
EXTT10=
EXTT11=
PLAYORDER=
